<svg width="45" height="44" viewBox="0 0 45 44" fill="none" xmlns="http://www.w3.org/2000/svg">
<path d="M22.2496 0.00446383C10.3608 -0.240117 0.523159 9.59654 0.251709 22C0.282729 28.3138 2.87796 34.5292 7.5 38.6046C6.99379 38.6046 8 38.6046 7.5 38.6046C11 41.213 10.5 40.6913 14.0957 42.4329C16.6986 43.4717 19.4627 44.0014 22.2496 43.9955C34.1383 44.2401 43.976 34.4035 44.2474 22C43.976 9.59654 34.1383 -0.240117 22.2496 0.00446383Z" fill="#2196F3"/>
<path d="M33.8488 16.3159C33.6256 16.0025 33.2164 15.9088 32.8888 16.0959L25.0889 20.5505L20.2365 16.1917C19.9389 15.9245 19.4951 15.9422 19.218 16.2326L10.2181 25.6604C9.92607 25.9682 9.92748 26.4656 10.2213 26.7715C10.4562 27.0161 10.8164 27.0704 11.1076 26.9049L18.9075 22.4503L23.7644 26.8106C24.062 27.0779 24.5058 27.0601 24.7829 26.7698L33.7828 17.3419C34.0451 17.0646 34.0732 16.6276 33.8488 16.3159Z" fill="#FAFAFA"/>
</svg>


